<svg xmlns="http://www.w3.org/2000/svg" xmlns:xlink="http://www.w3.org/1999/xlink" width="70" height="48" viewBox="0 0 70 48">
  <defs>
    <clipPath id="clip-Pinterest_-_icon">
      <rect width="70" height="48"/>
    </clipPath>
  </defs>
  <g id="Pinterest_-_icon" data-name="Pinterest - icon" clip-path="url(#clip-Pinterest_-_icon)">
    <path id="Icon_awesome-pinterest" data-name="Icon awesome-pinterest" d="M33.5,17.312a16.752,16.752,0,0,1-21.707,16,18.829,18.829,0,0,0,2.08-4.39c.2-.783,1.04-3.985,1.04-3.985a4.486,4.486,0,0,0,3.836,1.925c5.052,0,8.692-4.647,8.692-10.421,0-5.532-4.518-9.672-10.327-9.672-7.227,0-11.07,4.849-11.07,10.138,0,2.458,1.31,5.518,3.4,6.491.317.149.486.081.561-.223.054-.23.338-1.371.466-1.9a.5.5,0,0,0-.115-.48,6.6,6.6,0,0,1-1.236-3.823,7.248,7.248,0,0,1,7.565-7.267,6.613,6.613,0,0,1,7,6.815c0,4.532-2.29,7.673-5.268,7.673a2.429,2.429,0,0,1-2.479-3.026c.473-1.992,1.385-4.14,1.385-5.579A2.1,2.1,0,0,0,15.2,13.233c-1.682,0-3.033,1.736-3.033,4.066a6.035,6.035,0,0,0,.5,2.485s-1.655,7.011-1.959,8.321a16.214,16.214,0,0,0-.061,4.809A16.752,16.752,0,1,1,33.5,17.312Z" transform="translate(18 6.438)" fill="#fff"/>
  </g>
</svg>
