<svg xmlns="http://www.w3.org/2000/svg" xmlns:xlink="http://www.w3.org/1999/xlink" width="70" height="48" viewBox="0 0 70 48">
  <defs>
    <clipPath id="clip-Tiktok_-_icon_">
      <rect width="70" height="48"/>
    </clipPath>
  </defs>
  <g id="Tiktok_-_icon_" data-name="Tiktok - icon " clip-path="url(#clip-Tiktok_-_icon_)">
    <path id="Subtraction_1" data-name="Subtraction 1" d="M29,33H4a4,4,0,0,1-4-4V4A4,4,0,0,1,4,0H29a4,4,0,0,1,4,4V29A4.005,4.005,0,0,1,29,33ZM14.175,14.1a5.974,5.974,0,0,0-3.857,1.449,5.906,5.906,0,0,0-2.036,3.914c-.013.339-.011.713.008,1.175a5.946,5.946,0,0,0,2.88,4.505,5.774,5.774,0,0,0,2.928.821c.1,0,.195,0,.292-.008a5.861,5.861,0,0,0,4.663-2.534,6.059,6.059,0,0,0,1.065-3.109c.015-1.434.015-2.9.014-4.31V16c0-.848,0-1.724,0-2.586a9.786,9.786,0,0,0,1.278.734,8.387,8.387,0,0,0,3.314.765v-3.18a5.539,5.539,0,0,1-3.345-1.412A4.87,4.87,0,0,1,20,7.032c-.41,0-.827,0-1.231,0-.607,0-1.234,0-1.855.012-.015,1.977-.014,3.987-.014,5.931,0,1.175,0,2.39,0,3.592,0,.365,0,.736,0,1.094,0,1.028,0,2.089-.055,3.135a1.706,1.706,0,0,1-.3.789l-.027.047a2.661,2.661,0,0,1-2.186,1.271c-.065.006-.132.009-.2.009a2.7,2.7,0,0,1-2.563-2.273c0-.066,0-.132-.006-.2a2.548,2.548,0,0,1,.116-1.073,2.735,2.735,0,0,1,1.073-1.381,2.572,2.572,0,0,1,1.47-.435,2.957,2.957,0,0,1,.912.144c0-.5.009-1.007.017-1.5.011-.657.023-1.337.014-2.006A5.38,5.38,0,0,0,14.175,14.1Z" transform="translate(18 7)" fill="#fff"/>
  </g>
</svg>
